<?xml version="1.0" encoding="utf-8"?>
<!-- Generator: Adobe Illustrator 24.2.1, SVG Export Plug-In . SVG Version: 6.00 Build 0)  -->
<svg version="1.1" id="Layer_1" xmlns="http://www.w3.org/2000/svg" xmlns:xlink="http://www.w3.org/1999/xlink" x="0px" y="0px"
	 viewBox="0 0 773 346" style="enable-background:new 0 0 773 346;" xml:space="preserve">
<clipPath id="xps">
<path class="st0" d="M289,346L3,318l-2-2l-1-2v-1l2-1l2-1l231-112h2l2-1v-1L35,25v-2l1-2l1-2l1-1l121-7l61-4l34-2l18-1l17-1l36-2
	l4-1h1l4,2l48,44l18-18l12-1l31-1l32-1l31-1l29-1l46-1l43-1l34-1l32-1l47-2l1,1l1,4l1,2L580,216l-2,1l1,1l2-1h2l1,1l112,49l53,25
	l14,6l7,3l3,1v3l-2,2l-329-15l-9-1l-6-1l-9-3h-2l-3,1l-75,37l-26,14l-8,4l-6,2l-3,1H289z"/>
	</clipPath>
</svg>
