<?xml version="1.0" encoding="utf-8"?>
<!-- Generator: Adobe Illustrator 24.2.1, SVG Export Plug-In . SVG Version: 6.00 Build 0)  -->
<svg version="1.1" id="Layer_1" xmlns="http://www.w3.org/2000/svg" xmlns:xlink="http://www.w3.org/1999/xlink" x="0px" y="0px"
	 viewBox="0 0 773 346" style="enable-background:new 0 0 773 346;" xml:space="preserve">
<style type="text/css">
	.st0{clip-path:url(#SVGID_2_);}
</style>
<g>
	<defs>
		<path id="SVGID_1_" d="M289,346L3,318l-2-2l-1-2v-1l2-1l2-1l231-112h2l2-1v-1L35,25v-2l1-2l1-2l1-1l121-7l61-4l34-2l18-1l17-1
			l36-2l4-1h1l4,2l48,44l18-18l12-1l31-1l32-1l31-1l29-1l46-1l43-1l34-1l32-1l47-2l1,1l1,4l1,2L580,216l-2,1l1,1l2-1h2l1,1l112,49
			l53,25l14,6l7,3l3,1v3l-2,2l-329-15l-9-1l-6-1l-9-3h-2l-3,1l-75,37l-26,14l-8,4l-6,2l-3,1H289z"/>
	</defs>
	<clipPath id="SVGID_2_">
		<use xlink:href="#SVGID_1_"  style="overflow:visible;"/>
	</clipPath>
	<g id="xps-svg.psd_1_" class="st0">
		<defs>
			<rect id="SVGID_3_" x="-8.5" y="-98.5" width="800" height="546"/>
		</defs>
		<clipPath id="SVGID_4_">
			<use xlink:href="#SVGID_3_"  style="overflow:visible;"/>
		</clipPath>
		<g style="clip-path:url(#SVGID_4_);">
			
				<image style="overflow:visible;" width="800" height="546" id="Layer_2" xlink:href="45C7EFFF693196ED.png"  transform="matrix(1 0 0 1 -8.5 -98.5)">
			</image>
		</g>
		<g style="clip-path:url(#SVGID_4_);">
			
				<image style="overflow:visible;" width="775" height="347" id="Layer_1_1_" xlink:href="45C7EFFF693196EF.png"  transform="matrix(1 0 0 1 -1.5 0.5)">
			</image>
		</g>
	</g>
</g>
</svg>
