<?xml version="1.0" encoding="utf-8"?>
<!-- Generator: Adobe Illustrator 18.1.1, SVG Export Plug-In . SVG Version: 6.00 Build 0)  -->
<svg version="1.1" id="Layer_1" xmlns="http://www.w3.org/2000/svg" xmlns:xlink="http://www.w3.org/1999/xlink" x="0px" y="0px"
	 width="612px" height="417.1px" viewBox="0 0 612 417.1" enable-background="new 0 0 612 417.1" xml:space="preserve">
	<g>
		<g>
			<path fill="#FFF" d="M97.3,298.9c-1,4.3-0.3,8.8,2,12.5c2.3,3.7,6,6.4,10.3,7.4l414.5,97.8c1.3,0.3,2.6,0.4,3.8,0.4
				c7.5,0,14.3-5.1,16.1-12.8l67.5-286.1c1-4.3,0.3-8.8-2-12.5s-6-6.4-10.3-7.4L184.8,0.4c-4.3-1-8.8-0.3-12.5,2
				c-3.7,2.3-6.4,6-7.4,10.3L97.3,298.9z M188.4,57.3l45.4,67.4l-71,41.2L188.4,57.3z M544.9,256.2l-45.1-68.6l70.7-40L544.9,256.2z
				 M348.1,235.3L218.3,42.5l332.1,78.3L348.1,235.3z M133.4,290.4l18.9-79.9l100.1-58.1l76.9,114.2c3.2,4.7,8.4,7.3,13.8,7.3
				c2.8,0,5.6-0.7,8.2-2.2l119.8-67.8l63.5,96.7l-18.9,79.9L133.4,290.4z"/>
			<path fill="#FFF" d="M0,27.7c0,9.2,7.4,16.6,16.6,16.6h104.2c9.2,0,16.6-7.4,16.6-16.6s-7.4-16.6-16.6-16.6H16.6
				C7.4,11.1,0,18.6,0,27.7z"/>
			<path fill="#FFF" d="M17.5,112.2c0,9.2,7.4,16.6,16.6,16.6h69.2c9.2,0,16.6-7.4,16.6-16.6s-7.4-16.6-16.6-16.6H34.1
				C24.9,95.6,17.5,103,17.5,112.2z"/>
			<path fill="#FFF" d="M34.1,196.7c0,9.2,7.4,16.6,16.6,16.6h36c9.2,0,16.6-7.4,16.6-16.6s-7.4-16.6-16.6-16.6h-36
				C41.5,180.1,34.1,187.5,34.1,196.7z"/>
		</g>
	</g>
</svg>
